<mxfile host="Electron" modified="2024-09-04T09:00:45.381Z" agent="Mozilla/5.0 (Windows NT 10.0; Win64; x64) AppleWebKit/537.36 (KHTML, like Gecko) draw.io/21.2.8 Chrome/112.0.5615.165 Electron/24.2.0 Safari/537.36" etag="Sx-ddlPs2UBMHcZI0a2A" version="21.2.8" type="device">
  <diagram name="Page-1" id="r1JFL66CTiuOgVCJ2-nQ">
    <mxGraphModel dx="2058" dy="1180" grid="1" gridSize="10" guides="1" tooltips="1" connect="1" arrows="1" fold="1" page="1" pageScale="1" pageWidth="3300" pageHeight="4681" math="0" shadow="0">
      <root>
        <mxCell id="0" />
        <mxCell id="1" parent="0" />
        <mxCell id="HtgCEXxv3qPICbZDnLhH-1" value="Start" style="rounded=1;whiteSpace=wrap;html=1;fillColor=#f5f5f5;fontColor=#333333;strokeColor=#666666;" vertex="1" parent="1">
          <mxGeometry x="1005" y="170" width="120" height="60" as="geometry" />
        </mxCell>
        <mxCell id="HtgCEXxv3qPICbZDnLhH-2" value="&lt;font style=&quot;font-size: 17px;&quot;&gt;Operating System&lt;/font&gt;" style="rhombus;whiteSpace=wrap;html=1;fillColor=#f5f5f5;fontColor=#333333;strokeColor=#666666;" vertex="1" parent="1">
          <mxGeometry x="970" y="330" width="190" height="80" as="geometry" />
        </mxCell>
        <mxCell id="HtgCEXxv3qPICbZDnLhH-3" value="Windows (11)" style="rounded=0;whiteSpace=wrap;html=1;fillColor=#f5f5f5;fontColor=#333333;strokeColor=#666666;" vertex="1" parent="1">
          <mxGeometry x="340" y="570" width="120" height="60" as="geometry" />
        </mxCell>
        <mxCell id="HtgCEXxv3qPICbZDnLhH-4" value="&lt;font style=&quot;font-size: 17px;&quot;&gt;Linux&lt;/font&gt;" style="rounded=0;whiteSpace=wrap;html=1;fillColor=#f5f5f5;fontColor=#333333;strokeColor=#666666;" vertex="1" parent="1">
          <mxGeometry x="1005" y="570" width="120" height="60" as="geometry" />
        </mxCell>
        <mxCell id="HtgCEXxv3qPICbZDnLhH-5" value="&lt;font style=&quot;font-size: 17px;&quot;&gt;Mac&lt;/font&gt;" style="rounded=0;whiteSpace=wrap;html=1;fillColor=#f5f5f5;fontColor=#333333;strokeColor=#666666;" vertex="1" parent="1">
          <mxGeometry x="1650" y="570" width="120" height="60" as="geometry" />
        </mxCell>
        <mxCell id="HtgCEXxv3qPICbZDnLhH-8" value="" style="group" vertex="1" connectable="0" parent="1">
          <mxGeometry x="215" y="850" width="370" height="170" as="geometry" />
        </mxCell>
        <mxCell id="HtgCEXxv3qPICbZDnLhH-7" value="" style="rounded=0;whiteSpace=wrap;html=1;fillColor=#fff2cc;strokeColor=#d6b656;" vertex="1" parent="HtgCEXxv3qPICbZDnLhH-8">
          <mxGeometry width="360" height="170" as="geometry" />
        </mxCell>
        <mxCell id="HtgCEXxv3qPICbZDnLhH-6" value="&lt;div style=&quot;font-size: 17px;&quot;&gt;&lt;ul&gt;&lt;li&gt;Compiler: Visual C++&lt;/li&gt;&lt;li&gt;CMake 3.30 or up&lt;/li&gt;&lt;li&gt;Ninja 1.11 or up&lt;/li&gt;&lt;li&gt;Vcpkg&lt;/li&gt;&lt;li&gt;A debugger: comes with Visual C++&lt;/li&gt;&lt;li&gt;Git&lt;/li&gt;&lt;/ul&gt;&lt;/div&gt;" style="text;html=1;strokeColor=none;fillColor=none;align=left;verticalAlign=middle;whiteSpace=wrap;rounded=0;" vertex="1" parent="HtgCEXxv3qPICbZDnLhH-8">
          <mxGeometry x="20" y="10" width="350" height="150" as="geometry" />
        </mxCell>
        <mxCell id="HtgCEXxv3qPICbZDnLhH-9" value="" style="group" vertex="1" connectable="0" parent="1">
          <mxGeometry x="1080" y="850" width="360" height="170" as="geometry" />
        </mxCell>
        <mxCell id="HtgCEXxv3qPICbZDnLhH-10" value="" style="rounded=0;whiteSpace=wrap;html=1;fillColor=#fff2cc;strokeColor=#d6b656;" vertex="1" parent="HtgCEXxv3qPICbZDnLhH-9">
          <mxGeometry width="350.2702702702703" height="170" as="geometry" />
        </mxCell>
        <mxCell id="HtgCEXxv3qPICbZDnLhH-11" value="&lt;div style=&quot;font-size: 17px;&quot;&gt;&lt;ul&gt;&lt;li&gt;Compiler: GCC 14&lt;/li&gt;&lt;li&gt;CMake 3.30 or up&lt;/li&gt;&lt;li&gt;Ninja 1.11 or up&lt;/li&gt;&lt;li&gt;Vcpkg&lt;/li&gt;&lt;li&gt;A debugger: gdb&lt;/li&gt;&lt;li&gt;Git&lt;/li&gt;&lt;/ul&gt;&lt;/div&gt;" style="text;html=1;strokeColor=none;fillColor=none;align=left;verticalAlign=middle;whiteSpace=wrap;rounded=0;" vertex="1" parent="HtgCEXxv3qPICbZDnLhH-9">
          <mxGeometry x="19.45945945945946" y="10" width="340.5405405405406" height="150" as="geometry" />
        </mxCell>
        <mxCell id="HtgCEXxv3qPICbZDnLhH-12" value="Play it safe?" style="rhombus;whiteSpace=wrap;html=1;fillColor=#f5f5f5;strokeColor=#666666;fontColor=#333333;" vertex="1" parent="1">
          <mxGeometry x="980" y="720" width="170" height="80" as="geometry" />
        </mxCell>
        <mxCell id="HtgCEXxv3qPICbZDnLhH-13" value="" style="group" vertex="1" connectable="0" parent="1">
          <mxGeometry x="690" y="850" width="360" height="170" as="geometry" />
        </mxCell>
        <mxCell id="HtgCEXxv3qPICbZDnLhH-14" value="" style="rounded=0;whiteSpace=wrap;html=1;fillColor=#fff2cc;strokeColor=#d6b656;" vertex="1" parent="HtgCEXxv3qPICbZDnLhH-13">
          <mxGeometry width="350.2702702702703" height="170" as="geometry" />
        </mxCell>
        <mxCell id="HtgCEXxv3qPICbZDnLhH-15" value="&lt;div style=&quot;font-size: 17px;&quot;&gt;&lt;ul&gt;&lt;li&gt;Compiler: Clang 18&lt;/li&gt;&lt;li&gt;Clang tools&lt;/li&gt;&lt;li&gt;CMake 3.30 or up&lt;/li&gt;&lt;li&gt;Ninja 1.11 or up&lt;/li&gt;&lt;li&gt;Vcpkg&lt;/li&gt;&lt;li&gt;A debugger: gdb&lt;/li&gt;&lt;li&gt;Git&lt;/li&gt;&lt;/ul&gt;&lt;/div&gt;" style="text;html=1;strokeColor=none;fillColor=none;align=left;verticalAlign=middle;whiteSpace=wrap;rounded=0;" vertex="1" parent="HtgCEXxv3qPICbZDnLhH-13">
          <mxGeometry x="19.45945945945946" y="10" width="340.5405405405406" height="150" as="geometry" />
        </mxCell>
        <mxCell id="HtgCEXxv3qPICbZDnLhH-16" value="Y" style="ellipse;whiteSpace=wrap;html=1;fillColor=#d5e8d4;strokeColor=#82b366;" vertex="1" parent="1">
          <mxGeometry x="1240" y="740" width="40" height="40" as="geometry" />
        </mxCell>
        <mxCell id="HtgCEXxv3qPICbZDnLhH-17" value="N" style="ellipse;whiteSpace=wrap;html=1;fillColor=#f8cecc;strokeColor=#b85450;" vertex="1" parent="1">
          <mxGeometry x="850" y="740" width="40" height="40" as="geometry" />
        </mxCell>
        <mxCell id="HtgCEXxv3qPICbZDnLhH-19" value="" style="group" vertex="1" connectable="0" parent="1">
          <mxGeometry x="1530" y="850" width="360" height="170" as="geometry" />
        </mxCell>
        <mxCell id="HtgCEXxv3qPICbZDnLhH-20" value="" style="rounded=0;whiteSpace=wrap;html=1;fillColor=#fff2cc;strokeColor=#d6b656;" vertex="1" parent="HtgCEXxv3qPICbZDnLhH-19">
          <mxGeometry width="350.2702702702703" height="170" as="geometry" />
        </mxCell>
        <mxCell id="HtgCEXxv3qPICbZDnLhH-21" value="&lt;div style=&quot;font-size: 17px;&quot;&gt;&lt;ul&gt;&lt;li&gt;Compiler: Clang&lt;/li&gt;&lt;li&gt;CMake 3.30 or up&lt;/li&gt;&lt;li&gt;Ninja 1.11 or up&lt;/li&gt;&lt;li&gt;Vcpkg&lt;/li&gt;&lt;li&gt;A debugger: gdb&lt;/li&gt;&lt;li&gt;Git&lt;/li&gt;&lt;/ul&gt;&lt;/div&gt;" style="text;html=1;strokeColor=none;fillColor=none;align=left;verticalAlign=middle;whiteSpace=wrap;rounded=0;" vertex="1" parent="HtgCEXxv3qPICbZDnLhH-19">
          <mxGeometry x="19.45945945945946" y="10" width="340.5405405405406" height="150" as="geometry" />
        </mxCell>
        <mxCell id="HtgCEXxv3qPICbZDnLhH-22" value="Reproducible &lt;br&gt;environment?&amp;nbsp;" style="rhombus;whiteSpace=wrap;html=1;fillColor=#f5f5f5;fontColor=#333333;strokeColor=#666666;" vertex="1" parent="1">
          <mxGeometry x="980" y="1170" width="170" height="80" as="geometry" />
        </mxCell>
        <mxCell id="HtgCEXxv3qPICbZDnLhH-23" value="Y" style="ellipse;whiteSpace=wrap;html=1;fillColor=#d5e8d4;strokeColor=#82b366;" vertex="1" parent="1">
          <mxGeometry x="1240" y="1190" width="40" height="40" as="geometry" />
        </mxCell>
        <mxCell id="HtgCEXxv3qPICbZDnLhH-25" value="" style="group" vertex="1" connectable="0" parent="1">
          <mxGeometry x="1135" y="1300" width="250" height="80" as="geometry" />
        </mxCell>
        <mxCell id="HtgCEXxv3qPICbZDnLhH-26" value="&lt;div style=&quot;font-size: 17px;&quot;&gt;&lt;ul&gt;&lt;li&gt;&lt;font style=&quot;font-size: 17px;&quot;&gt;docker_clang_18&lt;/font&gt;&lt;/li&gt;&lt;li&gt;&lt;font style=&quot;font-size: 17px;&quot;&gt;docker_gcc_14&lt;/font&gt;&lt;/li&gt;&lt;/ul&gt;&lt;/div&gt;" style="rounded=0;whiteSpace=wrap;html=1;fillColor=#fff2cc;strokeColor=#d6b656;align=left;" vertex="1" parent="HtgCEXxv3qPICbZDnLhH-25">
          <mxGeometry width="243.24305555555554" height="80" as="geometry" />
        </mxCell>
        <mxCell id="HtgCEXxv3qPICbZDnLhH-28" value="N" style="ellipse;whiteSpace=wrap;html=1;fillColor=#f8cecc;strokeColor=#b85450;" vertex="1" parent="1">
          <mxGeometry x="850" y="1190" width="40" height="40" as="geometry" />
        </mxCell>
        <mxCell id="HtgCEXxv3qPICbZDnLhH-29" value="End" style="rounded=1;whiteSpace=wrap;html=1;fillColor=#f5f5f5;fontColor=#333333;strokeColor=#666666;" vertex="1" parent="1">
          <mxGeometry x="1200" y="1460" width="120" height="60" as="geometry" />
        </mxCell>
        <mxCell id="HtgCEXxv3qPICbZDnLhH-30" value="" style="endArrow=classic;html=1;rounded=0;" edge="1" parent="1">
          <mxGeometry width="50" height="50" relative="1" as="geometry">
            <mxPoint x="1064.5" y="240" as="sourcePoint" />
            <mxPoint x="1064.5" y="300" as="targetPoint" />
          </mxGeometry>
        </mxCell>
        <mxCell id="HtgCEXxv3qPICbZDnLhH-31" value="" style="endArrow=none;html=1;rounded=0;" edge="1" parent="1">
          <mxGeometry width="50" height="50" relative="1" as="geometry">
            <mxPoint x="400" y="490" as="sourcePoint" />
            <mxPoint x="1710" y="490" as="targetPoint" />
          </mxGeometry>
        </mxCell>
        <mxCell id="HtgCEXxv3qPICbZDnLhH-32" value="" style="endArrow=classic;html=1;rounded=0;" edge="1" parent="1">
          <mxGeometry width="50" height="50" relative="1" as="geometry">
            <mxPoint x="1064.5" y="490" as="sourcePoint" />
            <mxPoint x="1064.5" y="560" as="targetPoint" />
          </mxGeometry>
        </mxCell>
        <mxCell id="HtgCEXxv3qPICbZDnLhH-33" value="" style="endArrow=classic;html=1;rounded=0;" edge="1" parent="1">
          <mxGeometry width="50" height="50" relative="1" as="geometry">
            <mxPoint x="400" y="490" as="sourcePoint" />
            <mxPoint x="400" y="560" as="targetPoint" />
          </mxGeometry>
        </mxCell>
        <mxCell id="HtgCEXxv3qPICbZDnLhH-34" value="" style="endArrow=classic;html=1;rounded=0;" edge="1" parent="1">
          <mxGeometry width="50" height="50" relative="1" as="geometry">
            <mxPoint x="1709.5" y="490" as="sourcePoint" />
            <mxPoint x="1709.5" y="560" as="targetPoint" />
          </mxGeometry>
        </mxCell>
        <mxCell id="HtgCEXxv3qPICbZDnLhH-35" value="" style="endArrow=none;html=1;rounded=0;" edge="1" parent="1">
          <mxGeometry width="50" height="50" relative="1" as="geometry">
            <mxPoint x="1065" y="480" as="sourcePoint" />
            <mxPoint x="1064.5" y="420" as="targetPoint" />
          </mxGeometry>
        </mxCell>
        <mxCell id="HtgCEXxv3qPICbZDnLhH-36" value="" style="endArrow=none;html=1;rounded=0;" edge="1" parent="1">
          <mxGeometry width="50" height="50" relative="1" as="geometry">
            <mxPoint x="1160" y="759.5" as="sourcePoint" />
            <mxPoint x="1230" y="759.5" as="targetPoint" />
          </mxGeometry>
        </mxCell>
        <mxCell id="HtgCEXxv3qPICbZDnLhH-37" value="" style="endArrow=classic;html=1;rounded=0;" edge="1" parent="1">
          <mxGeometry width="50" height="50" relative="1" as="geometry">
            <mxPoint x="1259.5" y="780" as="sourcePoint" />
            <mxPoint x="1259.5" y="840" as="targetPoint" />
          </mxGeometry>
        </mxCell>
        <mxCell id="HtgCEXxv3qPICbZDnLhH-38" value="" style="endArrow=none;html=1;rounded=0;" edge="1" parent="1">
          <mxGeometry width="50" height="50" relative="1" as="geometry">
            <mxPoint x="900" y="759.5" as="sourcePoint" />
            <mxPoint x="970" y="759.5" as="targetPoint" />
          </mxGeometry>
        </mxCell>
        <mxCell id="HtgCEXxv3qPICbZDnLhH-39" value="" style="endArrow=classic;html=1;rounded=0;" edge="1" parent="1">
          <mxGeometry width="50" height="50" relative="1" as="geometry">
            <mxPoint x="869.5" y="780" as="sourcePoint" />
            <mxPoint x="869.5" y="840" as="targetPoint" />
          </mxGeometry>
        </mxCell>
        <mxCell id="HtgCEXxv3qPICbZDnLhH-41" value="" style="endArrow=classic;html=1;rounded=0;" edge="1" parent="1">
          <mxGeometry width="50" height="50" relative="1" as="geometry">
            <mxPoint x="399.5" y="650" as="sourcePoint" />
            <mxPoint x="400" y="830" as="targetPoint" />
          </mxGeometry>
        </mxCell>
        <mxCell id="HtgCEXxv3qPICbZDnLhH-42" value="" style="endArrow=classic;html=1;rounded=0;" edge="1" parent="1">
          <mxGeometry width="50" height="50" relative="1" as="geometry">
            <mxPoint x="1710" y="640" as="sourcePoint" />
            <mxPoint x="1710.5" y="820" as="targetPoint" />
          </mxGeometry>
        </mxCell>
        <mxCell id="HtgCEXxv3qPICbZDnLhH-43" value="" style="endArrow=classic;html=1;rounded=0;" edge="1" parent="1">
          <mxGeometry width="50" height="50" relative="1" as="geometry">
            <mxPoint x="1064.5" y="640" as="sourcePoint" />
            <mxPoint x="1064.5" y="710" as="targetPoint" />
          </mxGeometry>
        </mxCell>
        <mxCell id="HtgCEXxv3qPICbZDnLhH-44" value="" style="endArrow=none;html=1;rounded=0;" edge="1" parent="1">
          <mxGeometry width="50" height="50" relative="1" as="geometry">
            <mxPoint x="400" y="1090" as="sourcePoint" />
            <mxPoint x="1710" y="1090" as="targetPoint" />
          </mxGeometry>
        </mxCell>
        <mxCell id="HtgCEXxv3qPICbZDnLhH-45" value="" style="endArrow=classic;html=1;rounded=0;" edge="1" parent="1">
          <mxGeometry width="50" height="50" relative="1" as="geometry">
            <mxPoint x="1064.5" y="1090" as="sourcePoint" />
            <mxPoint x="1064.5" y="1160" as="targetPoint" />
          </mxGeometry>
        </mxCell>
        <mxCell id="HtgCEXxv3qPICbZDnLhH-46" value="" style="endArrow=none;html=1;rounded=0;" edge="1" parent="1">
          <mxGeometry width="50" height="50" relative="1" as="geometry">
            <mxPoint x="900" y="1209.5" as="sourcePoint" />
            <mxPoint x="970" y="1209.5" as="targetPoint" />
          </mxGeometry>
        </mxCell>
        <mxCell id="HtgCEXxv3qPICbZDnLhH-47" value="" style="endArrow=none;html=1;rounded=0;" edge="1" parent="1">
          <mxGeometry width="50" height="50" relative="1" as="geometry">
            <mxPoint x="1160" y="1209.5" as="sourcePoint" />
            <mxPoint x="1230" y="1209.5" as="targetPoint" />
          </mxGeometry>
        </mxCell>
        <mxCell id="HtgCEXxv3qPICbZDnLhH-49" value="" style="endArrow=none;html=1;rounded=0;" edge="1" parent="1">
          <mxGeometry width="50" height="50" relative="1" as="geometry">
            <mxPoint x="399.5" y="1090" as="sourcePoint" />
            <mxPoint x="399.5" y="1030" as="targetPoint" />
          </mxGeometry>
        </mxCell>
        <mxCell id="HtgCEXxv3qPICbZDnLhH-50" value="" style="endArrow=none;html=1;rounded=0;" edge="1" parent="1">
          <mxGeometry width="50" height="50" relative="1" as="geometry">
            <mxPoint x="869.5" y="1090" as="sourcePoint" />
            <mxPoint x="869.5" y="1030" as="targetPoint" />
          </mxGeometry>
        </mxCell>
        <mxCell id="HtgCEXxv3qPICbZDnLhH-51" value="" style="endArrow=none;html=1;rounded=0;" edge="1" parent="1">
          <mxGeometry width="50" height="50" relative="1" as="geometry">
            <mxPoint x="1259.5" y="1090" as="sourcePoint" />
            <mxPoint x="1259.5" y="1030" as="targetPoint" />
          </mxGeometry>
        </mxCell>
        <mxCell id="HtgCEXxv3qPICbZDnLhH-52" value="" style="endArrow=none;html=1;rounded=0;" edge="1" parent="1">
          <mxGeometry width="50" height="50" relative="1" as="geometry">
            <mxPoint x="1709.5" y="1090" as="sourcePoint" />
            <mxPoint x="1709.5" y="1030" as="targetPoint" />
          </mxGeometry>
        </mxCell>
        <mxCell id="HtgCEXxv3qPICbZDnLhH-53" value="" style="endArrow=classic;html=1;rounded=0;" edge="1" parent="1">
          <mxGeometry width="50" height="50" relative="1" as="geometry">
            <mxPoint x="1259.5" y="1230" as="sourcePoint" />
            <mxPoint x="1259.5" y="1290" as="targetPoint" />
          </mxGeometry>
        </mxCell>
        <mxCell id="HtgCEXxv3qPICbZDnLhH-54" value="" style="endArrow=classic;html=1;rounded=0;" edge="1" parent="1">
          <mxGeometry width="50" height="50" relative="1" as="geometry">
            <mxPoint x="869.5" y="1240" as="sourcePoint" />
            <mxPoint x="1190" y="1490" as="targetPoint" />
            <Array as="points">
              <mxPoint x="870" y="1490" />
            </Array>
          </mxGeometry>
        </mxCell>
        <mxCell id="HtgCEXxv3qPICbZDnLhH-55" value="" style="endArrow=classic;html=1;rounded=0;" edge="1" parent="1">
          <mxGeometry width="50" height="50" relative="1" as="geometry">
            <mxPoint x="1259.5" y="1400" as="sourcePoint" />
            <mxPoint x="1259.5" y="1460" as="targetPoint" />
          </mxGeometry>
        </mxCell>
      </root>
    </mxGraphModel>
  </diagram>
</mxfile>
